<!DOCTYPE svg PUBLIC "-//W3C//DTD SVG 20010904//EN" "http://www.w3.org/TR/2001/REC-SVG-20010904/DTD/svg10.dtd">
<svg version="1.0" xmlns="http://www.w3.org/2000/svg" width="84px" height="136px" viewBox="0 0 840 1360" preserveAspectRatio="xMidYMid meet">
<g id="layer101" fill="#aed831" stroke="none">
 <path d="M259 1337 c-31 -13 -69 -33 -86 -45 -52 -37 -114 -112 -141 -170 -24 -51 -27 -69 -27 -167 0 -105 2 -114 33 -178 58 -118 168 -204 291 -227 30 -6 56 -12 58 -13 2 -2 6 -51 9 -108 l6 -104 -31 -17 c-71 -39 -88 -121 -51 -242 26 -84 46 -87 112 -18 55 56 80 103 80 148 0 34 -36 104 -53 104 -5 0 -9 20 -9 45 l0 46 36 -25 c25 -17 43 -41 58 -77 25 -63 70 -91 155 -97 140 -9 169 24 104 118 -21 30 -54 65 -72 77 -40 27 -101 30 -141 7 -27 -16 -28 -16 -82 24 -44 33 -57 48 -62 77 -4 21 -5 39 -3 41 2 2 31 11 63 20 160 41 278 171 307 337 29 170 -70 356 -230 433 -50 24 -72 28 -163 31 -92 3 -112 1 -161 -20z"/>
 </g>
<g id="layer102" fill="#6ec4ae" stroke="none">
 <path d="M566 1308 c12 -39 32 -73 68 -117 20 -24 36 -51 36 -61 0 -22 -36 -50 -64 -50 -42 0 -129 -36 -167 -68 -48 -41 -69 -79 -69 -125 0 -58 36 -74 84 -36 39 31 67 22 93 -30 30 -59 46 -75 111 -112 53 -30 56 -30 70 -13 87 117 113 265 68 392 -25 71 -86 152 -149 198 -67 50 -92 56 -81 22z"/>
 <path d="M100 1224 c-23 -25 -54 -71 -68 -102 -24 -51 -27 -69 -27 -167 0 -98 3 -116 26 -165 15 -30 34 -64 42 -75 15 -20 16 -19 39 10 12 17 40 48 60 71 96 105 146 243 114 318 -14 34 -120 156 -136 156 -4 0 -26 -21 -50 -46z"/>
 </g>

</svg>