<!DOCTYPE svg PUBLIC "-//W3C//DTD SVG 20010904//EN" "http://www.w3.org/TR/2001/REC-SVG-20010904/DTD/svg10.dtd">
<svg version="1.0" xmlns="http://www.w3.org/2000/svg" width="121px" height="136px" viewBox="0 0 1210 1360" preserveAspectRatio="xMidYMid meet">
<g id="layer101" fill="#ebc833" stroke="none">
 <path d="M580 1239 c0 -119 0 -120 23 -117 21 3 22 7 25 121 l3 117 -26 0 -25 0 0 -121z"/>
 <path d="M845 1157 c-40 -72 -44 -97 -16 -97 23 0 96 123 87 146 -11 29 -36 12 -71 -49z"/>
 <path d="M297 1203 c-13 -12 -7 -32 28 -92 35 -59 60 -76 71 -47 3 8 -11 44 -31 80 -34 61 -51 76 -68 59z"/>
 <path d="M1075 985 c-62 -36 -90 -59 -90 -71 0 -32 27 -26 120 29 65 38 90 58 90 72 0 33 -26 26 -120 -30z"/>
 <path d="M17 1023 c-4 -3 -7 -11 -7 -18 0 -15 197 -128 210 -120 28 17 6 43 -81 93 -90 51 -109 58 -122 45z"/>
 <path d="M493 1012 c-146 -52 -240 -195 -231 -349 12 -179 146 -318 321 -331 270 -20 460 264 339 505 -35 69 -104 136 -170 166 -66 29 -190 34 -259 9z"/>
 <path d="M1047 704 c-4 -4 -7 -16 -7 -26 0 -16 9 -18 86 -18 83 0 85 1 82 23 -3 20 -9 22 -78 25 -42 1 -79 0 -83 -4z"/>
 <path d="M2 678 c3 -21 9 -23 79 -26 58 -2 79 1 88 12 23 27 2 36 -85 36 -83 0 -85 -1 -82 -22z"/>
 <path d="M984 465 c-9 -22 -1 -28 95 -84 96 -55 121 -62 121 -31 0 14 -26 35 -94 75 -100 59 -114 63 -122 40z"/>
 <path d="M110 419 c-105 -62 -108 -65 -88 -85 15 -15 24 -12 117 42 67 39 101 64 99 74 -6 28 -43 19 -128 -31z"/>
 <path d="M326 246 c-41 -73 -45 -96 -16 -96 23 0 95 122 86 145 -11 30 -35 13 -70 -49z"/>
 <path d="M820 300 c-13 -8 -10 -20 22 -77 35 -66 60 -85 80 -65 7 7 -4 34 -31 81 -44 74 -47 77 -71 61z"/>
 <path d="M597 239 c-14 -9 -17 -25 -17 -112 0 -109 7 -131 36 -125 17 3 19 15 22 114 3 118 -5 143 -41 123z"/>
 </g>

</svg>