<!DOCTYPE svg PUBLIC "-//W3C//DTD SVG 20010904//EN" "http://www.w3.org/TR/2001/REC-SVG-20010904/DTD/svg10.dtd">
<svg version="1.0" xmlns="http://www.w3.org/2000/svg" width="136px" height="122px" viewBox="0 0 1360 1220" preserveAspectRatio="xMidYMid meet">
<g id="layer101" fill="#323337" stroke="none">
 <path d="M590 1156 l0 -63 -82 -5 c-56 -3 -99 -12 -133 -27 -55 -24 -138 -99 -155 -140 -8 -20 -34 -36 -113 -71 -89 -39 -102 -48 -102 -69 0 -22 13 -30 101 -69 72 -31 105 -50 112 -67 17 -38 82 -104 126 -130 54 -31 148 -48 237 -43 52 3 67 1 55 -7 -213 -132 -236 -155 -236 -241 0 -65 29 -111 90 -142 35 -18 55 -22 87 -17 35 5 43 3 52 -13 15 -28 72 -52 126 -52 93 0 165 70 165 161 0 33 -15 71 -70 176 l-70 133 145 0 c97 0 145 -4 145 -11 0 -23 75 -123 113 -150 22 -16 45 -39 51 -52 17 -34 70 -36 91 -3 30 45 -8 95 -61 82 -18 -5 -33 2 -64 30 -37 34 -87 101 -79 108 2 2 29 14 60 28 115 52 179 152 179 278 -1 123 -54 213 -161 270 -52 28 -75 33 -148 38 l-86 4 0 62 c0 58 -1 61 -25 61 -24 0 -25 -3 -28 -62 -3 -59 -4 -63 -27 -63 -23 0 -24 4 -27 63 -3 59 -4 62 -28 62 -24 0 -25 -3 -28 -62 -3 -59 -4 -63 -27 -63 -23 0 -24 4 -27 63 -3 59 -4 62 -28 62 -24 0 -25 -2 -25 -63 0 -61 0 -62 -27 -62 -28 0 -28 1 -28 65 0 63 -1 65 -25 65 -24 0 -25 -2 -25 -64z"/>
 </g>
<g id="layer102" fill="#efcf39" stroke="none">
 <path d="M415 1076 c-65 -21 -98 -42 -147 -94 -65 -69 -88 -161 -68 -268 14 -74 49 -128 118 -181 46 -35 88 -50 170 -59 l52 -7 0 312 0 311 -42 -1 c-24 0 -61 -6 -83 -13z"/>
 <path d="M670 786 l0 -301 -113 -71 c-131 -82 -157 -113 -157 -189 0 -66 29 -112 90 -143 35 -18 55 -22 87 -17 35 5 43 3 52 -13 15 -28 72 -52 126 -52 93 0 165 70 165 161 0 33 -15 71 -70 176 l-70 133 50 0 50 0 0 308 0 308 -105 0 -105 0 0 -300z"/>
 <path d="M1010 781 l0 -312 63 7 c121 12 215 76 263 179 31 66 33 179 4 244 -50 108 -146 177 -265 188 l-65 6 0 -312z m190 -90 c0 -41 -52 -54 -74 -18 -9 15 -7 22 12 37 28 23 62 12 62 -19z"/>
 </g>
<g id="layer103" fill="#cfced1" stroke="none">
 <path d="M550 411 c-124 -80 -150 -112 -150 -186 0 -66 29 -112 90 -143 35 -18 55 -22 87 -17 35 5 43 3 52 -13 15 -28 72 -52 126 -52 93 0 165 70 165 160 0 34 -16 73 -72 181 l-73 139 -60 -1 c-57 0 -66 -4 -165 -68z"/>
 </g>

</svg>