<!DOCTYPE svg PUBLIC "-//W3C//DTD SVG 20010904//EN" "http://www.w3.org/TR/2001/REC-SVG-20010904/DTD/svg10.dtd">
<svg version="1.0" xmlns="http://www.w3.org/2000/svg" width="134px" height="136px" viewBox="0 0 1340 1360" preserveAspectRatio="xMidYMid meet">
<g id="layer101" fill="#cf330c" stroke="none">
 <path d="M66 1338 c-14 -19 -16 -70 -16 -350 l0 -327 -23 -3 c-21 -3 -22 -8 -25 -96 -3 -88 -2 -93 20 -103 20 -8 23 -18 23 -63 1 -60 36 -131 82 -164 l27 -20 -38 -96 c-38 -97 -39 -116 -6 -116 13 0 24 14 36 46 15 40 19 44 25 26 10 -27 63 -54 97 -50 24 3 27 7 25 38 -2 40 -49 90 -84 90 -15 0 -19 5 -15 16 3 9 6 18 6 20 0 2 21 4 46 4 42 0 50 -4 83 -41 32 -36 43 -42 87 -46 63 -6 107 14 136 63 18 30 25 34 62 34 54 0 101 16 144 47 l32 24 33 -19 c17 -11 46 -23 63 -26 l30 -7 12 -100 c7 -56 15 -105 18 -110 3 -5 14 -9 26 -9 19 0 20 5 16 54 -4 50 -3 54 13 45 38 -20 109 -4 109 26 0 26 -50 55 -96 55 -39 0 -44 3 -44 23 0 15 12 29 40 45 22 12 50 38 62 56 22 34 22 34 48 15 43 -31 89 -33 139 -7 70 38 82 69 79 218 -3 121 -4 125 -25 128 l-23 3 0 333 c0 310 -1 334 -18 349 -17 15 -73 17 -605 17 l-586 0 -15 -22z"/>
 </g>
<g id="layer102" fill="#9ec52f" stroke="none">
 <path d="M65 1337 c-13 -18 -15 -72 -15 -349 l0 -327 -23 -3 c-21 -3 -22 -8 -25 -92 -2 -49 1 -93 7 -99 5 -5 100 -8 225 -8 l215 2 7 -26 c19 -77 -35 -182 -114 -220 -23 -11 -42 -23 -42 -28 0 -4 15 -24 33 -43 61 -67 173 -56 219 22 18 30 25 34 62 34 54 0 101 16 144 47 l32 24 33 -19 c17 -11 46 -23 63 -26 l30 -7 12 -100 c7 -56 15 -105 18 -110 3 -5 14 -9 26 -9 19 0 20 5 16 54 -4 50 -3 54 13 45 38 -20 109 -4 109 26 0 26 -50 55 -96 55 -39 0 -44 3 -44 23 0 16 11 28 37 42 20 11 49 37 64 58 26 35 27 41 14 61 -8 12 -16 37 -17 56 l-3 35 115 2 c173 4 161 -4 158 106 -3 87 -4 92 -25 95 l-23 3 0 334 0 335 -22 14 c-20 13 -111 15 -605 15 l-583 0 -15 -22z"/>
 <path d="M117 120 c-21 -55 -35 -104 -32 -110 16 -25 44 -9 61 36 15 40 19 44 25 26 10 -27 63 -54 97 -50 24 3 27 7 25 38 -2 39 -49 90 -83 90 -17 0 -19 5 -14 24 4 18 1 27 -14 35 -12 6 -22 11 -24 11 -2 0 -20 -45 -41 -100z"/>
 </g>
<g id="layer103" fill="#d18621" stroke="none">
 <path d="M65 1337 c-13 -18 -15 -72 -15 -349 l0 -327 -23 -3 c-21 -3 -22 -8 -25 -92 -2 -49 1 -93 7 -99 5 -5 100 -8 225 -8 l215 2 7 -26 c8 -33 -3 -104 -21 -131 -12 -19 -11 -24 9 -43 13 -12 46 -31 75 -41 86 -33 170 -24 239 27 l32 24 34 -21 c19 -11 47 -21 63 -21 98 -3 147 18 188 78 21 32 22 38 10 57 -8 12 -16 37 -17 56 l-3 35 115 2 c173 4 161 -4 158 106 -3 87 -4 92 -25 95 l-23 3 0 334 0 335 -22 14 c-20 13 -111 15 -605 15 l-583 0 -15 -22z"/>
 </g>
<g id="layer104" fill="#75b66b" stroke="none">
 <path d="M460 406 c0 -29 -7 -70 -16 -91 -14 -34 -14 -39 2 -56 9 -10 41 -28 71 -39 89 -33 172 -24 240 26 l32 24 41 -21 c40 -21 48 -22 122 -19 44 2 106 43 128 84 13 25 13 31 -3 58 -9 16 -17 43 -17 59 l0 29 -94 0 c-82 0 -95 -2 -99 -17 -4 -17 -5 -17 -6 0 -1 16 -18 17 -201 17 l-200 0 0 -54z"/>
 </g>
<g id="layer105" fill="#f2cd30" stroke="none">
 <path d="M864 420 c-4 -22 -21 -65 -39 -95 l-33 -54 22 -14 c31 -20 85 -37 99 -31 7 2 29 6 49 7 41 4 96 42 118 82 13 24 12 30 -3 57 -9 16 -17 43 -17 59 l0 29 -95 0 -95 0 -6 -40z"/>
 </g>

</svg>