<!DOCTYPE svg PUBLIC "-//W3C//DTD SVG 20010904//EN" "http://www.w3.org/TR/2001/REC-SVG-20010904/DTD/svg10.dtd">
<svg version="1.0" xmlns="http://www.w3.org/2000/svg" width="136px" height="129px" viewBox="0 0 1360 1290" preserveAspectRatio="xMidYMid meet">
<g id="layer101" fill="#b2711a" stroke="none">
 <path d="M144 1275 c-4 -11 -20 -15 -56 -15 -90 0 -88 6 -88 -208 0 -133 4 -192 12 -200 7 -7 38 -12 69 -12 49 0 57 -3 62 -20 5 -19 12 -21 119 -18 l113 3 3 63 c3 56 5 62 25 62 41 0 95 -20 132 -50 20 -16 52 -32 71 -36 20 -4 36 -13 39 -25 11 -33 96 -98 148 -114 28 -8 77 -15 109 -15 l59 0 -6 -47 c-9 -62 -34 -159 -54 -203 -14 -30 -21 -35 -54 -37 -90 -6 -153 -68 -189 -186 -11 -38 -21 -100 -22 -140 l-1 -72 50 1 c98 3 250 95 282 171 19 47 16 101 -10 158 l-23 49 24 60 c14 33 30 86 35 117 l11 57 44 -80 c39 -71 42 -83 33 -110 -39 -110 27 -191 188 -233 75 -19 91 -11 91 46 0 56 -43 166 -81 205 -36 37 -88 59 -123 52 -26 -5 -50 28 -98 133 l-26 57 40 6 c55 9 106 37 150 83 40 41 77 114 78 151 0 12 4 22 8 22 5 0 18 9 30 20 23 22 29 68 12 99 -6 11 -98 54 -237 111 l-227 92 -100 -4 c-91 -3 -109 -8 -182 -41 -70 -32 -92 -37 -152 -37 l-71 0 -3 48 -3 47 -113 3 c-93 2 -113 0 -118 -13z"/>
 </g>
<g id="layer102" fill="#abd433" stroke="none">
 <path d="M144 1275 c-4 -11 -20 -15 -56 -15 -90 0 -88 6 -88 -208 0 -133 4 -192 12 -200 7 -7 38 -12 69 -12 49 0 57 -3 62 -20 5 -19 12 -21 119 -18 l113 3 3 63 c3 56 5 62 25 62 41 0 95 -20 131 -49 21 -17 50 -32 65 -36 32 -7 274 21 309 35 31 13 30 63 -3 95 -20 21 -34 25 -80 25 -62 0 -70 12 -32 48 20 19 35 22 106 22 77 0 94 -4 220 -53 171 -68 192 -72 220 -46 22 21 28 67 11 98 -6 11 -98 54 -237 111 l-227 92 -100 -4 c-91 -3 -109 -8 -182 -41 -70 -32 -92 -37 -152 -37 l-71 0 -3 48 -3 47 -113 3 c-93 2 -113 0 -118 -13z"/>
 <path d="M966 692 c-3 -5 -10 -37 -16 -73 -11 -68 -29 -135 -52 -184 -11 -25 -19 -30 -51 -32 -90 -6 -153 -68 -189 -186 -11 -38 -21 -100 -22 -140 l-1 -72 50 1 c98 3 250 95 282 171 19 47 16 101 -10 158 l-23 49 24 60 c14 33 30 86 35 117 l11 57 44 -80 c39 -71 42 -83 33 -110 -39 -110 27 -191 188 -233 75 -19 91 -11 91 46 0 56 -43 166 -81 205 -36 37 -88 59 -123 52 -19 -4 -28 4 -53 46 -16 28 -40 75 -53 104 -20 45 -27 52 -51 52 -15 0 -30 -4 -33 -8z"/>
 </g>
<g id="layer103" fill="#eebd6d" stroke="none">
 <path d="M675 1256 c-22 -8 -65 -25 -95 -40 -44 -20 -70 -26 -127 -26 l-73 0 0 -129 0 -128 49 -7 c27 -4 63 -17 82 -31 78 -57 89 -59 243 -40 78 10 149 22 159 27 26 13 22 64 -8 93 -20 21 -34 25 -80 25 -62 0 -70 12 -32 48 20 19 35 22 106 22 77 0 94 -4 220 -53 171 -68 192 -72 220 -46 22 21 28 67 11 98 -6 11 -97 54 -234 110 l-225 91 -88 -1 c-48 0 -106 -6 -128 -13z"/>
 </g>

</svg>