<!DOCTYPE svg PUBLIC "-//W3C//DTD SVG 20010904//EN" "http://www.w3.org/TR/2001/REC-SVG-20010904/DTD/svg10.dtd">
<svg version="1.0" xmlns="http://www.w3.org/2000/svg" width="134px" height="136px" viewBox="0 0 1340 1360" preserveAspectRatio="xMidYMid meet">
<g id="layer101" fill="#b96f19" stroke="none">
 <path d="M217 1353 c-4 -3 -7 -75 -7 -158 l0 -153 -43 -10 c-55 -14 -119 -70 -147 -127 -18 -37 -21 -58 -18 -113 4 -58 17 -96 98 -280 99 -225 114 -247 160 -222 23 12 30 24 84 151 l43 98 109 -252 c60 -138 117 -260 126 -269 24 -24 80 -23 102 1 9 10 64 128 122 262 58 134 107 245 108 247 2 1 25 -47 51 -109 52 -120 75 -146 117 -130 20 7 42 49 118 218 81 180 94 217 98 276 3 49 0 80 -12 112 -23 58 -92 121 -150 136 l-46 11 -2 157 c-3 153 -3 156 -25 159 l-23 3 0 -160 c0 -149 -1 -161 -18 -161 -52 0 -172 -90 -172 -129 0 -6 -21 2 -46 18 -25 16 -67 35 -94 41 l-50 12 -2 186 c-3 185 -3 187 -25 190 l-23 3 0 -189 0 -189 -54 -12 c-30 -7 -73 -25 -95 -41 l-40 -29 -22 36 c-26 41 -97 90 -146 99 l-33 6 0 159 c0 148 -1 159 -18 159 -10 0 -22 -3 -25 -7z"/>
 </g>
<g id="layer102" fill="#7fa427" stroke="none">
 <path d="M650 1172 l0 -189 -54 -12 c-30 -7 -72 -25 -94 -41 l-39 -28 -30 42 c-20 28 -49 52 -84 69 -90 46 -89 47 -89 -102 l0 -130 45 -32 c25 -18 45 -38 45 -45 0 -23 -25 -22 -57 2 l-32 24 -3 -92 c-2 -75 -6 -93 -18 -93 -13 0 -15 24 -18 148 -1 81 -6 147 -10 146 -4 0 -24 -23 -45 -50 -37 -48 -63 -60 -61 -26 1 8 27 46 58 85 55 68 56 71 56 132 l0 62 -37 -6 c-50 -9 -111 -52 -148 -105 -27 -39 -30 -50 -30 -124 0 -82 0 -83 94 -295 100 -225 115 -246 161 -222 23 12 30 24 84 151 l43 98 109 -252 c60 -138 117 -260 126 -269 24 -24 80 -23 102 1 9 10 64 128 122 262 58 134 107 245 108 247 2 1 25 -47 51 -109 52 -120 75 -146 117 -130 20 7 42 49 118 218 81 180 94 217 98 276 6 87 -14 142 -72 195 -39 36 -95 62 -133 62 -10 0 -13 -32 -13 -128 l0 -129 45 -32 c43 -31 55 -53 36 -65 -5 -4 -23 5 -39 19 -16 14 -32 25 -36 25 -3 0 -7 -42 -8 -92 -2 -75 -6 -93 -18 -93 -12 0 -16 25 -20 148 l-5 148 -39 -51 c-37 -49 -58 -59 -63 -29 -2 8 22 44 52 82 54 66 55 68 55 132 0 77 -7 80 -87 40 -48 -24 -103 -80 -103 -104 0 -6 -21 2 -46 18 -25 16 -67 35 -94 41 l-50 12 -2 186 c-3 185 -3 187 -25 190 l-23 3 0 -189z"/>
 </g>
<g id="layer103" fill="#e7972a" stroke="none">
 <path d="M650 1172 l0 -189 -54 -12 c-30 -7 -73 -25 -95 -41 l-40 -29 -22 36 c-28 45 -103 93 -146 93 l-33 0 0 -124 0 -125 45 -32 c25 -18 45 -38 45 -45 0 -23 -25 -22 -57 2 l-32 24 -3 -92 c-2 -75 -6 -93 -18 -93 -13 0 -15 24 -18 148 -1 81 -6 147 -10 146 -4 0 -24 -23 -45 -50 -37 -48 -63 -60 -61 -26 1 8 27 46 58 85 50 62 56 74 56 116 0 25 -3 46 -8 46 -21 0 -83 -66 -106 -112 -31 -62 -34 -127 -8 -195 50 -131 176 -403 184 -395 4 4 30 58 56 119 l49 112 109 -252 c60 -138 117 -260 126 -269 24 -24 80 -23 102 1 25 27 256 568 256 598 0 40 13 20 58 -87 22 -52 55 -126 72 -165 38 -83 22 -103 144 177 78 178 86 203 86 260 0 77 -26 134 -83 183 -36 31 -47 36 -87 33 l-45 -3 -3 -116 -3 -115 46 -33 c43 -31 55 -53 36 -65 -5 -4 -23 5 -39 19 -16 14 -32 25 -36 25 -3 0 -7 -42 -8 -92 -2 -75 -6 -93 -18 -93 -12 0 -16 25 -20 148 l-5 148 -39 -51 c-37 -49 -58 -59 -63 -29 -2 8 22 44 52 82 46 56 55 73 55 107 0 22 -4 40 -10 40 -34 0 -124 -134 -113 -169 3 -9 -4 -5 -16 9 -23 27 -28 45 -9 34 7 -4 8 -3 4 5 -4 6 -11 9 -15 6 -5 -2 -17 5 -27 16 -28 31 -93 66 -146 79 l-48 12 -2 187 c-3 184 -3 186 -25 189 l-23 3 0 -189z"/>
 </g>
<g id="layer104" fill="#a1c730" stroke="none">
 <path d="M260 906 l0 -125 45 -32 c25 -18 45 -38 45 -45 0 -23 -25 -22 -57 2 l-32 24 -3 -92 c-2 -75 -6 -93 -18 -93 -13 0 -15 24 -18 148 -1 81 -6 147 -10 146 -4 0 -24 -23 -45 -50 -37 -48 -63 -60 -61 -26 1 8 27 46 58 85 50 62 56 74 56 116 0 25 -3 46 -8 46 -21 0 -83 -66 -106 -112 -31 -62 -34 -127 -8 -195 50 -131 176 -403 184 -395 4 4 30 58 56 119 l49 112 109 -252 c60 -138 117 -260 126 -269 24 -24 80 -23 102 1 25 27 256 568 256 598 0 40 13 20 58 -87 22 -52 55 -126 72 -165 38 -83 22 -103 144 177 78 178 86 203 86 260 0 77 -26 134 -83 183 -36 31 -47 36 -87 33 l-45 -3 -3 -116 -3 -115 46 -33 c43 -31 55 -53 36 -65 -5 -4 -23 5 -39 19 -16 14 -32 25 -36 25 -3 0 -7 -42 -8 -92 -2 -75 -6 -93 -18 -93 -12 0 -16 25 -20 148 l-5 148 -39 -51 c-37 -49 -58 -59 -63 -29 -2 8 22 44 52 82 46 56 55 73 55 107 0 22 -4 40 -10 40 -34 0 -124 -134 -113 -169 3 -9 -4 -5 -16 9 -23 27 -28 45 -9 34 7 -5 8 -3 4 5 -5 7 -10 10 -13 7 -3 -3 -22 9 -41 26 -41 35 -100 63 -154 73 l-38 7 0 -169 0 -170 60 -46 c33 -26 60 -51 60 -56 0 -24 -25 -20 -70 13 l-50 36 0 -126 c0 -114 -2 -125 -17 -122 -16 3 -18 23 -23 201 l-5 198 -55 -71 c-49 -63 -90 -90 -90 -59 0 7 34 54 75 105 l75 93 0 86 c0 64 -3 85 -13 85 -32 0 -110 -30 -142 -54 l-33 -26 -23 36 c-28 46 -103 94 -146 94 l-33 0 0 -124z"/>
 </g>

</svg>